<svg xmlns="http://www.w3.org/2000/svg" xmlns:xlink="http://www.w3.org/1999/xlink" style="z-index:1;position:relative" width="854" height="300" viewBox="0 0 854 300"><g transform="translate(427, 150) scale(1, 1) translate(-427, -150)"><defs><linearGradient id="linear" x1="0%" y1="0%" x2="100%" y2="0%"><stop offset="0%" stop-color="#81c753"/><stop offset="100%" stop-color="#599f2b"/></linearGradient></defs><path d="" fill="url(#linear)" opacity="0.4"><animate attributeName="d" dur="20s" repeatCount="indefinite" keyTimes="0;0.333;0.667;1" calcmod="spline" keySplines="0.2 0 0.2 1;0.2 0 0.2 1;0.2 0 0.2 1" begin="0s" values="M0 0L 0 220Q 213.5 260 427 230T 854 255L 854 0 Z;M0 0L 0 245Q 213.5 260 427 240T 854 230L 854 0 Z;M0 0L 0 265Q 213.5 235 427 265T 854 230L 854 0 Z;M0 0L 0 220Q 213.5 260 427 230T 854 255L 854 0 Z"/></path><path d="" fill="url(#linear)" opacity="0.4"><animate attributeName="d" dur="20s" repeatCount="indefinite" keyTimes="0;0.333;0.667;1" calcmod="spline" keySplines="0.2 0 0.2 1;0.2 0 0.2 1;0.2 0 0.2 1" begin="-5s" values="M0 0L 0 220Q 213.5 260 427 230T 854 255L 854 0 Z;M0 0L 0 245Q 213.5 260 427 240T 854 230L 854 0 Z;M0 0L 0 265Q 213.5 235 427 265T 854 230L 854 0 Z;M0 0L 0 220Q 213.5 260 427 230T 854 255L 854 0 Z"/></path><path d="" fill="url(#linear)" opacity="0.4"><animate attributeName="d" dur="20s" repeatCount="indefinite" keyTimes="0;0.333;0.667;1" calcmod="spline" keySplines="0.2 0 0.2 1;0.2 0 0.2 1;0.2 0 0.2 1" begin="-10s" values="M0 0L 0 235Q 213.5 280 427 250T 854 260L 854 0 Z;M0 0L 0 250Q 213.5 220 427 220T 854 240L 854 0 Z;M0 0L 0 245Q 213.5 225 427 250T 854 265L 854 0 Z;M0 0L 0 235Q 213.5 280 427 250T 854 260L 854 0 Z"/></path></g><svg role="img" viewBox="0 0 24 24" xmlns="http://www.w3.org/2000/svg" fill="white" height="40" x="-40%" y="35.5%"><path d="M21.8537 1.4158a10.4504 10.4504 0 0 1-1.284 2.2471A11.9666 11.9666 0 1 0 3.8518 20.7757l.4445.3951a11.9543 11.9543 0 0 0 19.6316-8.2971c.3457-3.0126-.568-6.8649-2.0743-11.458zM5.5805 20.8745a1.0174 1.0174 0 1 1-.1482-1.4323 1.0396 1.0396 0 0 1 .1482 1.4323zm16.1991-3.5806c-2.9385 3.9263-9.2601 2.5928-13.2852 2.7904 0 0-.7161.0494-1.4323.1481 0 0 .2717-.1234.6174-.2469 2.8398-.9877 4.1732-1.1853 5.9018-2.0743 3.2349-1.6545 6.4698-5.2844 7.1118-9.0379-1.2347 3.6053-4.9881 6.7167-8.3959 7.9761-2.3459.8643-6.5685 1.7039-6.5685 1.7039l-.1729-.0988c-2.8645-1.4076-2.9632-7.6304 2.2718-9.6306 2.2966-.889 4.4696-.395 6.9637-.9877 2.6422-.6174 5.7043-2.5929 6.939-5.1857 1.3828 4.1732 3.062 10.643.0493 14.6434z"/></svg><text xmlns="http://www.w3.org/2000/svg" text-anchor="start" alignment-baseline="middle" x="15%" y="44%" style="fill: white; @import url(//fonts.googleapis.com/css?family=Lato:300); font-size: 50px; font-family: 'Lato', sans-serif; font-weight: 300;">강지석</text><text xmlns="http://www.w3.org/2000/svg" text-anchor="end" alignment-baseline="middle" x="93%" y="44%" style="fill: white; @import url(//fonts.googleapis.com/css?family=Lato:300); font-size: 23px; font-family: 'Lato', sans-serif; font-weight: 300;">Junior Server Developer</text></svg>